<svg width="718" height="718" viewBox="0 0 718 718" fill="none" xmlns="http://www.w3.org/2000/svg">
<circle cx="359" cy="359" r="324.963" fill="#FFFFFC" stroke="#FFFFFC" stroke-width="56"/>
<path d="M359 57.9688C192.705 57.9688 57.9689 192.705 57.9689 359C57.9689 525.296 192.705 660.031 359 660.031C525.296 660.031 660.031 525.296 660.031 359C660.031 192.705 525.296 57.9688 359 57.9688ZM471.268 437.899L446.991 468.245C445.398 470.237 443.428 471.896 441.194 473.126C438.96 474.357 436.505 475.135 433.97 475.417C431.435 475.699 428.869 475.478 426.419 474.768C423.97 474.059 421.684 472.873 419.692 471.28L338.365 410.928C332.682 406.378 328.096 400.609 324.944 394.047C321.792 387.486 320.156 380.299 320.157 373.02V184.208C320.157 179.057 322.204 174.117 325.846 170.475C329.488 166.833 334.428 164.786 339.579 164.786H378.421C383.572 164.786 388.512 166.833 392.154 170.475C395.797 174.117 397.843 179.057 397.843 184.208V359L468.245 410.588C470.238 412.182 471.897 414.153 473.127 416.389C474.358 418.625 475.136 421.081 475.416 423.617C475.697 426.154 475.475 428.721 474.763 431.171C474.051 433.622 472.864 435.908 471.268 437.899Z" fill="#25A792"/>
</svg>
