<svg width="706" height="706" viewBox="0 0 706 706" fill="none" xmlns="http://www.w3.org/2000/svg">
<circle cx="353" cy="353" r="336" fill="#FFFFFC" stroke="#FFFFFC" stroke-width="20"/>
<path d="M353 22C170.149 22 22 170.149 22 353C22 535.851 170.149 684 353 684C535.851 684 684 535.851 684 353C684 170.149 535.851 22 353 22ZM476.444 439.754L449.751 473.121C447.999 475.311 445.833 477.135 443.376 478.488C440.92 479.841 438.221 480.697 435.433 481.006C432.646 481.316 429.825 481.074 427.131 480.294C424.437 479.513 421.924 478.21 419.734 476.458L330.31 410.098C324.062 405.095 319.019 398.752 315.554 391.536C312.088 384.321 310.289 376.42 310.29 368.416V160.806C310.29 155.143 312.54 149.711 316.545 145.706C320.55 141.701 325.982 139.452 331.645 139.452H374.355C380.019 139.452 385.45 141.701 389.455 145.706C393.46 149.711 395.71 155.143 395.71 160.806V353L473.121 409.724C475.312 411.477 477.136 413.644 478.489 416.102C479.842 418.561 480.697 421.261 481.006 424.05C481.315 426.839 481.071 429.662 480.288 432.356C479.505 435.051 478.199 437.565 476.444 439.754Z" fill="#25A792"/>
</svg>
