<svg width="448" height="512" viewBox="0 0 448 512" fill="none" xmlns="http://www.w3.org/2000/svg">
<path d="M433.941 129.941L350.059 46.059C341.057 37.0572 328.848 32.0001 316.118 32H48C21.49 32 0 53.49 0 80V432C0 458.51 21.49 480 48 480H400C426.51 480 448 458.51 448 432V163.882C448 151.152 442.943 138.943 433.941 129.941V129.941ZM224 416C188.654 416 160 387.346 160 352C160 316.654 188.654 288 224 288C259.346 288 288 316.654 288 352C288 387.346 259.346 416 224 416ZM320 111.48V212C320 218.627 314.627 224 308 224H76C69.373 224 64 218.627 64 212V108C64 101.373 69.373 96 76 96H304.52C307.703 96 310.755 97.264 313.005 99.515L316.485 102.995C317.599 104.109 318.484 105.432 319.087 106.888C319.69 108.344 320 109.904 320 111.48V111.48Z" fill="#FFFFFC"/>
</svg>
